<svg width="68" height="65" viewBox="0 0 68 65" fill="none" xmlns="http://www.w3.org/2000/svg">
<path d="M7.51855 42.3284L7.8313 40.1009L12.2863 40.7264L11.9736 42.9539L7.51855 42.3284Z" fill="#D9AF66"/>
<path d="M16.7744 57.2688L17.0872 55.0413L19.3147 55.354L19.0019 57.5816L16.7744 57.2688Z" fill="#D9AF66"/>
<path d="M67.848 28.6661L67.6522 26.4251L45.0836 28.4006C44.338 28.4651 43.635 28.7757 43.0852 29.2834C42.5353 29.7911 42.1698 30.4671 42.0461 31.2052L41.0224 37.35C40.9876 37.6642 41.0194 37.9823 41.1158 38.2834C41.2122 38.5845 41.371 38.862 41.5818 39.0976C41.7926 39.3333 42.0507 39.5218 42.3393 39.651C42.6279 39.7802 42.9404 39.8472 43.2566 39.8475C43.3227 39.8478 43.3888 39.8448 43.4546 39.8385L62.2601 38.1903L63.6338 53.8807L56.8208 54.477C56.3917 52.6322 55.3113 51.0043 53.7781 49.8923C52.2449 48.7802 50.362 48.2588 48.4752 48.4238C46.5884 48.5889 44.8245 49.4292 43.5076 50.7905C42.1908 52.1517 41.4094 53.9425 41.307 55.8337L37.8566 56.1352C37.7097 56.1488 37.5615 56.1328 37.4208 56.0882C37.2802 56.0435 37.1499 55.9712 37.0376 55.8753C36.924 55.7809 36.8301 55.6649 36.7616 55.5339C36.693 55.403 36.6511 55.2598 36.6383 55.1126L36.5404 53.9876L39.9019 53.6928L39.705 51.4518L36.3435 51.75L36.2422 50.5935L40.2045 48.213C40.3509 48.1249 40.4754 48.0047 40.5684 47.8614C40.6615 47.7181 40.7206 47.5555 40.7415 47.3859C40.7623 47.2163 40.7442 47.0442 40.6886 46.8826C40.633 46.7211 40.5413 46.5743 40.4205 46.4535L38.9659 45L40.4205 43.5453C40.5462 43.4193 40.6402 43.2652 40.6947 43.0957C40.7493 42.9263 40.7628 42.7463 40.7342 42.5706C40.7057 42.3949 40.6359 42.2285 40.5305 42.085C40.4251 41.9415 40.2871 41.8251 40.128 41.7453L36.2501 39.8058C36.3514 39.4087 36.4504 39.0105 36.5798 38.6223L40.812 28.35C41.0463 27.7769 41.4342 27.2797 41.9331 26.9131C42.4319 26.5464 43.0223 26.3246 43.6391 26.2721L66.8288 24.2471C67.0834 24.2262 67.3395 24.233 67.5926 24.2673L67.9076 22.0398C67.4853 21.9813 67.0578 21.97 66.633 22.0061L43.4423 24.0311C42.4142 24.119 41.4304 24.4888 40.5991 25.1C39.7678 25.7112 39.1213 26.5399 38.7308 27.495L34.4771 37.845C33.9253 39.5001 33.6039 41.2232 33.522 42.966C33.2777 42.4056 32.9696 41.8752 32.604 41.3853C31.9835 40.5576 31.2051 39.861 30.3137 39.336C29.4224 38.811 28.4358 38.4678 27.411 38.3265L25.6189 38.0745L31.6072 34.083L33.2048 35.6805L34.7955 34.0897L32.5455 31.8397C32.3616 31.6558 32.1196 31.5412 31.8608 31.5156C31.6019 31.4899 31.3422 31.5548 31.1257 31.6991L23.0482 37.0833L15.603 25.0672C15.1688 24.3662 14.5856 23.7694 13.8948 23.3191C13.204 22.8688 12.4225 22.5761 11.6059 22.4617L0.4065 20.8867L0.09375 23.1153L11.292 24.6903C11.7822 24.7585 12.2514 24.9339 12.6661 25.204C13.0809 25.474 13.431 25.8322 13.6916 26.253L14.4026 27.3993L0.4065 25.4328L0.09375 27.6603L4.95487 28.3443L4.0155 35.028L0.4065 34.5217L0.09375 36.7492L3.70275 37.2566L1.51012 52.8536L0.4065 52.6983L0.09375 54.9258L10.1974 56.3456C10.2051 58.4291 11.0382 60.4246 12.5142 61.8952C13.9902 63.3657 15.9889 64.1914 18.0724 64.1913C19.775 64.1865 21.4304 63.6308 22.7912 62.6075C24.152 61.5841 25.1451 60.1479 25.6222 58.5135L29.0524 58.995C29.21 59.0174 29.369 59.0286 29.5282 59.0287C30.3409 59.0271 31.1258 58.7323 31.7386 58.1985C32.3513 57.6647 32.7509 56.9277 32.8639 56.1228L33.8539 49.0725L34.4006 55.3083C34.476 56.1472 34.8616 56.9277 35.4821 57.4972C36.1026 58.0666 36.9132 58.3841 37.7554 58.3875C37.8544 58.3875 37.9534 58.3875 38.0524 58.3751L41.5039 58.0725C41.9105 59.7976 42.8866 61.3353 44.2746 62.4376C45.6626 63.5398 47.3815 64.1422 49.1539 64.1475C49.3834 64.1475 49.614 64.1373 49.8457 64.1171C51.7318 63.9535 53.4955 63.1146 54.8125 61.7546C56.1295 60.3946 56.9113 58.6049 57.0143 56.7146L67.8457 55.7662L67.65 53.5252L65.8725 53.6805L64.5 37.9901L67.8457 37.6976L67.65 35.4566L64.3043 35.7581L63.717 29.025L67.848 28.6661ZM31.8851 46.8978L31.7276 48.0116L27.2726 47.385L27.5854 45.1575L31.929 45.7672C31.9519 46.1446 31.9372 46.5234 31.8851 46.8978ZM7.1835 28.6571L15.9394 29.8878V29.8811L20.5755 37.3556L6.243 35.3418L7.1835 28.6571ZM23.6355 57.0982C23.4807 58.2 23.0027 59.2312 22.2618 60.0613C21.521 60.8914 20.5506 61.4831 19.4734 61.7617C18.3962 62.0402 17.2606 61.993 16.2102 61.6261C15.1598 61.2592 14.2418 60.589 13.5724 59.7003C12.9437 58.866 12.5597 57.873 12.4636 56.8327C12.3675 55.7924 12.563 54.7459 13.0282 53.8105C13.4934 52.875 14.2099 52.0876 15.0975 51.5365C15.985 50.9854 17.0085 50.6924 18.0533 50.6902C18.319 50.6902 18.5843 50.7086 18.8475 50.7453C20.324 50.9548 21.6571 51.7412 22.5547 52.9321C23.4522 54.123 23.8409 55.6212 23.6355 57.0982ZM29.3618 56.7675L25.9305 56.2848C25.9257 54.8247 25.5146 53.3947 24.7433 52.1549C23.972 50.915 22.8708 49.9144 21.5631 49.2648C20.2553 48.6153 18.7926 48.3425 17.3387 48.477C15.8847 48.6115 14.4969 49.148 13.3305 50.0265C11.9724 51.0476 10.9849 52.4843 10.518 54.1181L3.73762 53.1663L5.93025 37.575L22.6376 39.9183L27.0938 40.545C27.9611 40.6454 28.7904 40.9579 29.5083 41.4549C30.2263 41.9519 30.8107 42.6181 31.2101 43.3946L27.8948 42.9288C27.3042 42.8457 26.7047 43.0005 26.2282 43.3591C25.7517 43.7177 25.437 44.2508 25.3534 44.8413L25.0406 47.0688C24.9572 47.6596 25.1118 48.2593 25.4704 48.7361C25.8291 49.2129 26.3624 49.5277 26.9531 49.6113L31.4093 50.2368L31.0965 52.4655L27.7541 51.9963L27.4414 54.2238L30.7838 54.6941L30.6262 55.8078C30.5852 56.1025 30.4291 56.3689 30.1921 56.5487C29.9551 56.7285 29.6566 56.8072 29.3618 56.7675ZM37.7261 43.0582L36.5798 44.2046C36.3688 44.4156 36.2504 44.7017 36.2504 45C36.2504 45.2983 36.3688 45.5844 36.5798 45.7953L37.8116 47.025L36.024 48.0993L35.7889 45.4128C35.695 44.3124 35.7081 43.2055 35.8283 42.1076L37.7261 43.0582ZM54.7654 55.7853C54.8624 56.8937 54.6286 58.0059 54.0935 58.9813C53.5584 59.9567 52.746 60.7516 51.7592 61.2653C50.7723 61.779 49.6553 61.9886 48.5493 61.8674C47.4434 61.7463 46.3982 61.2999 45.5459 60.5847C44.6937 59.8695 44.0727 58.9177 43.7614 57.8495C43.4502 56.7814 43.4627 55.6449 43.7973 54.5839C44.132 53.5229 44.7738 52.5849 45.6415 51.8886C46.5093 51.1923 47.564 50.769 48.6724 50.6722C48.8389 50.6576 49.0099 50.6497 49.1719 50.6497C50.5772 50.6523 51.9308 51.1808 52.966 52.1313C54.0012 53.0817 54.6431 54.3853 54.7654 55.7853ZM62.0655 35.9628L43.2499 37.656L44.268 31.581C44.3092 31.3349 44.4311 31.1096 44.6143 30.9404C44.7976 30.7711 45.032 30.6676 45.2805 30.6461L61.4805 29.2286L62.0655 35.9628Z" fill="#D9AF66"/>
<path d="M44.5088 41.999L48.9908 41.6075L49.1865 43.8485L44.7045 44.24L44.5088 41.999Z" fill="#D9AF66"/>
<path d="M47.9092 55.2638L50.1502 55.068L50.3459 57.309L48.1049 57.5048L47.9092 55.2638Z" fill="#D9AF66"/>
<path d="M18.5794 25.5454L20.1701 23.9546L18.7155 22.5H21.6248C21.9231 22.5 22.2093 22.3815 22.4203 22.1705C22.6312 21.9595 22.7498 21.6734 22.7498 21.375V18.4658L26.4544 22.1704C26.6654 22.3813 26.9515 22.4998 27.2498 22.4998C27.5481 22.4998 27.8342 22.3813 28.0451 22.1704L31.7498 18.4658V21.375C31.7498 21.6734 31.8683 21.9595 32.0793 22.1705C32.2903 22.3815 32.5764 22.5 32.8748 22.5H36.909L34.3294 25.0796L35.9201 26.6704L40.4201 22.1704C40.5774 22.013 40.6845 21.8126 40.7279 21.5944C40.7713 21.3762 40.749 21.1501 40.6639 20.9445C40.5788 20.739 40.4346 20.5633 40.2497 20.4397C40.0647 20.3161 39.8472 20.2501 39.6248 20.25H33.9998V15.75C33.9997 15.5275 33.9337 15.3101 33.8101 15.1251C33.6865 14.9402 33.5108 14.796 33.3053 14.7109C33.0997 14.6257 32.8736 14.6035 32.6554 14.6468C32.4372 14.6902 32.2367 14.7973 32.0794 14.9546L27.2498 19.7843L22.4201 14.9546C22.2628 14.7973 22.0624 14.6902 21.8442 14.6468C21.626 14.6035 21.3998 14.6257 21.1943 14.7109C20.9887 14.796 20.8131 14.9402 20.6894 15.1251C20.5658 15.3101 20.4998 15.5275 20.4998 15.75V20.25H15.9998C15.7773 20.2501 15.5598 20.3161 15.3749 20.4397C15.1899 20.5633 15.0458 20.739 14.9606 20.9445C14.8755 21.1501 14.8532 21.3762 14.8966 21.5944C14.94 21.8126 15.0471 22.013 15.2044 22.1704L18.5794 25.5454Z" fill="#D9AF66"/>
<path d="M25.3379 13.5H27.5879C27.5884 13.2823 27.6353 13.0673 27.7255 12.8692C27.8158 12.6712 27.9472 12.4946 28.1111 12.3514C28.7855 11.6544 29.1625 10.7225 29.1625 9.75262C29.1625 8.78276 28.7855 7.85088 28.1111 7.15388C27.9464 7.01047 27.8144 6.83344 27.724 6.63472C27.6336 6.436 27.5868 6.22021 27.5868 6.00187C27.5868 5.78354 27.6336 5.56775 27.724 5.36903C27.8144 5.17031 27.9464 4.99328 28.1111 4.84987C28.7892 4.15479 29.1669 3.22106 29.1629 2.25H26.9129C26.9127 2.46828 26.8657 2.68398 26.7753 2.88266C26.6849 3.08134 26.5531 3.2584 26.3887 3.402C25.7147 4.09965 25.3379 5.03181 25.3379 6.00187C25.3379 6.97194 25.7147 7.9041 26.3887 8.60175C26.5531 8.74494 26.6849 8.92171 26.7752 9.12014C26.8655 9.31857 26.9122 9.53405 26.9122 9.75206C26.9122 9.97008 26.8655 10.1856 26.7752 10.384C26.6849 10.5824 26.5531 10.7592 26.3887 10.9024C25.7105 11.5964 25.333 12.5296 25.3379 13.5Z" fill="#D9AF66"/>
<path d="M32.0879 11.25H34.3379C34.3384 11.0323 34.3853 10.8173 34.4755 10.6192C34.5658 10.4212 34.6972 10.2446 34.8611 10.1014C35.5355 9.40437 35.9125 8.47249 35.9125 7.50262C35.9125 6.53276 35.5355 5.60088 34.8611 4.90388C34.6964 4.76047 34.5645 4.58344 34.474 4.38472C34.3836 4.186 34.3368 3.97021 34.3368 3.75187C34.3368 3.53354 34.3836 3.31775 34.474 3.11903C34.5645 2.92031 34.6964 2.74328 34.8611 2.59987C35.5392 1.90479 35.917 0.971056 35.9129 0H33.6629C33.6627 0.218282 33.6157 0.433983 33.5253 0.63266C33.4349 0.831336 33.3031 1.0084 33.1387 1.152C32.4647 1.84965 32.0879 2.78181 32.0879 3.75187C32.0879 4.72194 32.4647 5.6541 33.1387 6.35175C33.3031 6.49494 33.4349 6.67171 33.5252 6.87014C33.6155 7.06857 33.6622 7.28405 33.6622 7.50206C33.6622 7.72008 33.6155 7.93556 33.5252 8.13399C33.4349 8.33241 33.3031 8.50918 33.1387 8.65238C32.4605 9.34641 32.083 10.2796 32.0879 11.25Z" fill="#D9AF66"/>
</svg>
