<svg width="12" height="14" viewBox="0 0 12 14" fill="none" xmlns="http://www.w3.org/2000/svg">
<path d="M7.66436 7.63448C7.66436 7.48075 7.78905 7.3562 7.94291 7.3562H8.91496C9.06864 7.3562 9.19336 7.48075 9.19336 7.63448V8.6064C9.19336 8.76033 9.06864 8.88493 8.91496 8.88493H7.94291C7.78905 8.88493 7.66436 8.76033 7.66436 8.6064V7.63448Z" fill="white"/>
<path d="M5.23579 7.63448C5.23579 7.48075 5.36051 7.3562 5.51407 7.3562H6.48624C6.63993 7.3562 6.76465 7.48075 6.76465 7.63448V8.6064C6.76465 8.76033 6.63993 8.88493 6.48624 8.88493H5.51407C5.36051 8.88493 5.23579 8.76033 5.23579 8.6064V7.63448Z" fill="white"/>
<path d="M2.80596 7.63448C2.80596 7.48075 2.93068 7.3562 3.08436 7.3562H4.05641C4.21027 7.3562 4.33496 7.48075 4.33496 7.63448V8.6064C4.33496 8.76033 4.21027 8.88493 4.05641 8.88493H3.08436C2.93068 8.88493 2.80596 8.76033 2.80596 8.6064V7.63448Z" fill="white"/>
<path d="M7.66436 10.0641C7.66436 9.91009 7.78905 9.78564 7.94291 9.78564H8.91496C9.06864 9.78564 9.19336 9.91009 9.19336 10.0641V11.0358C9.19336 11.1896 9.06864 11.3142 8.91496 11.3142H7.94291C7.78905 11.3142 7.66436 11.1896 7.66436 11.0358V10.0641Z" fill="white"/>
<path d="M5.23579 10.0641C5.23579 9.91009 5.36051 9.78564 5.51407 9.78564H6.48624C6.63993 9.78564 6.76465 9.91009 6.76465 10.0641V11.0358C6.76465 11.1896 6.63993 11.3142 6.48624 11.3142H5.51407C5.36051 11.3142 5.23579 11.1896 5.23579 11.0358V10.0641Z" fill="white"/>
<path d="M2.80596 10.0641C2.80596 9.91009 2.93068 9.78564 3.08424 9.78564H4.05641C4.21027 9.78564 4.33496 9.91009 4.33496 10.0641V11.0358C4.33496 11.1896 4.21027 11.3142 4.05641 11.3142H3.08424C2.93068 11.3142 2.80596 11.1896 2.80596 11.0358V10.0641Z" fill="white"/>
<path d="M1.06796 2.23043V3.71496C1.06796 4.38595 1.61229 4.92666 2.28318 4.92666H3.04978C3.72073 4.92666 4.27228 4.38595 4.27228 3.71496V2.2251H7.72755V3.71496C7.72755 4.38595 8.27907 4.92666 8.94991 4.92666H9.71667C10.3875 4.92666 10.9318 4.38595 10.9318 3.71496V2.23043C11.5182 2.2481 12 2.73328 12 3.32963V12.0297C12 12.6372 11.5076 13.1362 10.9 13.1362H1.09983C0.493176 13.1362 -0.00017643 12.6362 -0.00017643 12.0297V3.32963C-0.00017643 2.73328 0.48161 2.2481 1.06796 2.23043ZM1.42402 11.4879C1.42402 11.7505 1.6369 11.9635 1.89957 11.9635H10.1212C10.3839 11.9635 10.5967 11.7505 10.5967 11.4879V6.99402C10.5967 6.73135 10.3839 6.51834 10.1212 6.51834H1.89959C1.63693 6.51834 1.42404 6.73135 1.42404 6.99402L1.42402 11.4879Z" fill="white"/>
<path d="M9.71897 4.13086H8.96069C8.73053 4.13086 8.54391 3.94452 8.54391 3.71436V1.28066C8.54391 1.05048 8.73053 0.864014 8.96069 0.864014H9.71897C9.94915 0.864014 10.1357 1.05048 10.1357 1.28066V3.71436C10.1357 3.94452 9.94915 4.13086 9.71897 4.13086Z" fill="white"/>
<path d="M3.05981 4.13086H2.30154C2.07153 4.13086 1.88491 3.94452 1.88491 3.71436V1.28066C1.88489 1.05048 2.0715 0.864014 2.30154 0.864014H3.05981C3.28995 0.864014 3.47656 1.05048 3.47656 1.28066V3.71436C3.47656 3.94452 3.28995 4.13086 3.05981 4.13086Z" fill="white"/>
</svg>
