<svg width="60" height="60" viewBox="0 0 60 60" fill="none" xmlns="http://www.w3.org/2000/svg">
<path d="M13.8014 20.431C13.3443 19.974 12.6013 19.974 12.1444 20.431C11.6862 20.8892 11.6862 21.631 12.1444 22.0881C12.6015 22.5463 13.3444 22.5463 13.8014 22.0881C14.2594 21.631 14.2594 20.8892 13.8014 20.431Z" fill="#373737"/>
<path d="M29.6718 52.467C30.1885 51.7672 30.4678 50.924 30.4678 50.0375C30.4678 47.776 28.6279 45.936 26.3663 45.936H6.44509C5.34903 45.936 4.31907 46.3626 3.54481 47.1371C2.7702 47.9115 2.34364 48.9414 2.34364 50.0375C2.34364 50.9456 2.64083 51.7853 3.14227 52.4656C1.27629 53.4467 0 55.4038 0 57.6543V58.8262C0 59.4734 0.524767 59.9981 1.17188 59.9981H31.6395C32.2866 59.9981 32.8114 59.4734 32.8114 58.8262V57.6543C32.8114 55.4048 31.5364 53.4486 29.6718 52.467ZM5.20196 48.7941C5.53372 48.4623 5.97529 48.2796 6.44509 48.2796H26.3663C27.3356 48.2796 28.124 49.0681 28.124 50.0373C28.124 50.5072 27.9412 50.9486 27.6093 51.2805C27.2776 51.6124 26.836 51.7951 26.3662 51.7951H6.44509C5.47583 51.7951 4.68739 51.0065 4.68739 50.0374C4.68739 49.5676 4.87009 49.126 5.20196 48.7941ZM2.34364 57.6543C2.34364 55.7159 3.92075 54.1388 5.85915 54.1388H6.44509H26.3663H26.9522C28.8906 54.1388 30.4678 55.7159 30.4678 57.6543H2.34364Z" fill="#373737"/>
<path d="M58.9099 49.2334C58.5119 48.6166 58.0371 48.0712 57.4984 47.6123L52.0228 42.8366C51.9801 42.7724 51.9307 42.7114 51.8741 42.6548C51.7789 42.5598 51.6711 42.4856 51.5565 42.43L48.2451 39.542L32.9181 26.1719C33.5456 25.516 33.891 24.6583 33.891 23.7462C33.891 22.8066 33.5253 21.9236 32.8605 21.2589C32.5706 20.9693 32.241 20.7416 31.8889 20.5749L33.3068 19.1569C33.7032 19.2623 34.1104 19.3162 34.518 19.3162C35.7181 19.3161 36.9183 18.8593 37.8319 17.9457C38.7176 17.0601 39.2054 15.8829 39.2054 14.631C39.2054 13.3791 38.7176 12.2019 37.8321 11.3164L27.8889 1.37345C27.0033 0.487857 25.8261 0.00012207 24.5738 0.00012207C23.3221 0.00012207 22.1452 0.487857 21.2597 1.37345C20.0358 2.59735 19.6329 4.33513 20.0485 5.89865L5.90099 20.046C5.51005 19.9421 5.10329 19.8872 4.68774 19.8872C3.43524 19.8872 2.25856 20.3746 1.37367 21.2594C-0.453985 23.087 -0.453985 26.0609 1.37367 27.8887L11.3167 37.8318C12.2306 38.7457 13.431 39.2026 14.6313 39.2026C15.8318 39.2026 17.0322 38.7457 17.9461 37.8318C19.17 36.6078 19.5729 34.8702 19.1574 33.3066L20.5724 31.8915C20.7425 32.2466 20.9732 32.5742 21.2598 32.8607C21.9238 33.5247 22.8066 33.8905 23.746 33.8905C24.6571 33.8905 25.5145 33.5456 26.1713 32.9189L42.4962 51.6752C42.5412 51.7455 42.5937 51.8125 42.6551 51.8739C42.6761 51.8948 42.6984 51.9139 42.7205 51.9329L47.5851 57.5221C47.706 57.6648 47.8353 57.8052 47.9695 57.9394C49.3055 59.275 51.0703 59.9998 52.923 59.9998C53.2496 59.9998 53.5793 59.9773 53.9094 59.9316C56.1159 59.6262 58.0229 58.3062 59.1411 56.3095C60.3661 54.1213 60.2749 51.3431 58.9099 49.2334ZM22.9171 3.03071C23.36 2.58786 23.9485 2.34388 24.5739 2.34388C25.2002 2.34388 25.789 2.58786 26.2318 3.03071L36.1749 12.9737C36.6178 13.4166 36.8616 14.0052 36.8616 14.6311C36.8616 15.257 36.6178 15.8457 36.1748 16.2885C35.2613 17.2022 33.7747 17.2022 32.8612 16.2885L22.9177 6.34502C22.9175 6.34478 22.9173 6.34467 22.9171 6.34443C22.0034 5.43084 22.0034 3.94431 22.9171 3.03071ZM16.2889 36.1746C15.375 37.0884 13.8878 37.0885 12.974 36.1746L3.03094 26.2315C2.117 25.3176 2.117 23.8307 3.03094 22.9167C3.47297 22.4745 4.06149 22.231 4.68774 22.231C5.31388 22.231 5.90204 22.4744 6.34396 22.9162L16.2887 32.861C17.2026 33.7744 17.2026 35.2611 16.2889 36.1746ZM21.2227 27.9269L17.946 31.2037L8.00193 21.2596L21.2597 8.00158L31.2037 17.9457L27.921 21.2284C27.9104 21.2385 27.8999 21.2484 27.8887 21.2595L21.2631 27.8852C21.2494 27.8987 21.2362 27.9127 21.2227 27.9269ZM25.407 30.3715C25.4046 30.3739 25.4024 30.3761 25.4001 30.3785L24.5748 31.2037C24.3535 31.4249 24.0592 31.5468 23.7459 31.5468C23.4326 31.5468 23.1382 31.4249 22.917 31.2036C22.6954 30.9821 22.5734 30.6875 22.5734 30.374C22.5734 30.0672 22.6905 29.7786 22.9029 29.5608L29.5593 22.9045C30.0155 22.4608 30.7531 22.4663 31.2039 22.9167C31.4254 23.1381 31.5474 23.4327 31.5474 23.7462C31.5474 24.0595 31.4258 24.3533 31.2038 24.5746L30.3834 25.3951C30.3777 25.4006 30.3721 25.4062 30.3666 25.4118L25.407 30.3715ZM27.8337 31.2592L31.2586 27.8343L45.7597 40.483L40.4682 45.7746L27.8337 31.2592ZM42.0105 47.5467L47.5299 42.0272L49.3003 43.5713L43.5528 49.3189L42.0105 47.5467ZM57.0963 55.1646C56.34 56.515 55.0613 57.4062 53.5882 57.6101C52.1184 57.8135 50.6743 57.3294 49.6264 56.282C49.5363 56.192 49.45 56.0981 49.3696 56.003C49.3659 55.9985 49.3621 55.9941 49.3583 55.9897L45.095 51.091L51.0705 45.1154L55.9631 49.383C55.9667 49.3863 55.9705 49.3895 55.9743 49.3928C56.3406 49.7041 56.6655 50.0781 56.9413 50.5053C57.8274 51.8747 57.8895 53.7473 57.0963 55.1646Z" fill="#373737"/>
<path d="M22.0878 12.1448C21.63 11.6872 20.8882 11.6872 20.4305 12.1448L15.4584 17.1169C15.0008 17.5745 15.0008 18.3165 15.4584 18.774C15.6873 19.0029 15.9872 19.1173 16.2871 19.1173C16.587 19.1173 16.8868 19.0028 17.1157 18.774L22.0878 13.802C22.5454 13.3445 22.5454 12.6026 22.0878 12.1448Z" fill="#373737"/>
</svg>
