<svg width="57" height="57" viewBox="0 0 57 57" fill="none" xmlns="http://www.w3.org/2000/svg">
<path d="M14.2537 0.00533141H2.85461C2.08883 -0.0299197 1.34299 0.258582 0.800774 0.801262C0.258094 1.34348 -0.0304079 2.08932 0.00484312 2.8551V4.75494C0.00484312 5.27953 0.430175 5.70487 0.954765 5.70487H2.85461V26.6032C2.85507 26.855 2.9548 27.0967 3.13337 27.2748L7.60422 31.7461V51.476C6.4697 51.8772 5.70948 52.9477 5.70438 54.1509V56.0508C5.70438 56.5753 6.12971 57.0007 6.6543 57.0007H10.454C10.979 57.0007 11.4039 56.5753 11.4039 56.0508V54.1509C11.3993 52.9477 10.6391 51.8772 9.50407 51.476V31.7461L13.9754 27.2748C14.154 27.0967 14.2537 26.855 14.2537 26.6032V5.70487H16.1535C16.6786 5.70487 17.1034 5.27953 17.1034 4.75494V2.8551C17.1392 2.08932 16.8507 1.34348 16.308 0.801262C15.7658 0.258582 15.0199 -0.0299197 14.2537 0.00533141ZM9.50407 55.1008H7.60422V54.1509C7.60422 53.6263 8.02955 53.201 8.55414 53.201C9.0792 53.201 9.50407 53.6263 9.50407 54.1509V55.1008ZM8.55414 30.0095L4.75445 26.2098V17.1039H12.3538V26.2098L8.55414 30.0095ZM12.3538 15.2041H4.75445V5.70487H12.3538V15.2041ZM15.2036 3.80502H1.90469V2.8551C1.86526 2.59303 1.95293 2.32819 2.14031 2.1408C2.3277 1.95341 2.59301 1.86575 2.85461 1.90518H14.2537C14.5157 1.86575 14.7811 1.95341 14.9684 2.1408C15.1558 2.32819 15.243 2.59303 15.2036 2.8551V3.80502Z" fill="#373737"/>
<path d="M28.5021 51.476V31.7461L32.9734 27.2748C33.152 27.0967 33.2517 26.855 33.2517 26.6032V5.70487H35.1516C35.6766 5.70487 36.1015 5.27953 36.1015 4.75494V2.8551C36.1372 2.08932 35.8487 1.34348 35.306 0.801262C34.7638 0.258582 34.018 -0.0299197 33.2517 0.00533141H21.8527C21.0869 -0.0299197 20.341 0.258582 19.7988 0.801262C19.2561 1.34348 18.9676 2.08932 19.0029 2.8551V4.75494C19.0029 5.27953 19.4282 5.70487 19.9528 5.70487H21.8527V26.6032C21.8531 26.855 21.9528 27.0967 22.1314 27.2748L26.6023 31.7461V51.476C25.4677 51.8772 24.7075 52.9477 24.7024 54.1509V56.0508C24.7024 56.5753 25.1278 57.0007 25.6523 57.0007H29.452C29.9771 57.0007 30.402 56.5753 30.402 56.0508V54.1509C30.3973 52.9477 29.6371 51.8772 28.5021 51.476ZM20.9027 2.8551C20.8633 2.59303 20.951 2.32819 21.1384 2.1408C21.3257 1.95341 21.5911 1.86575 21.8527 1.90518H33.2517C33.5138 1.86575 33.7791 1.95341 33.9665 2.1408C34.1539 2.32819 34.2411 2.59303 34.2016 2.8551V3.80502H20.9027V2.8551ZM31.3519 5.70487V15.2041H23.7525V5.70487H31.3519ZM23.7525 17.1039H31.3519V26.2098L27.5522 30.0095L23.7525 26.2098V17.1039ZM28.5021 55.1008H26.6023V54.1509C26.6023 53.6263 27.0276 53.201 27.5522 53.201C28.0772 53.201 28.5021 53.6263 28.5021 54.1509V55.1008Z" fill="#373737"/>
<path d="M56.7006 49.463C56.2882 48.8211 55.5725 48.4379 54.8095 48.4514H53.1054L53.2 47.6063C53.2302 47.3368 53.1435 47.0673 52.9621 46.8656C52.7803 46.6643 52.5215 46.5502 52.2501 46.5516H44.6507C44.1786 46.443 43.8094 46.0743 43.7008 45.6016V33.2526C43.7008 32.728 43.276 32.3027 42.7509 32.3027H41.801V30.4029C41.801 29.8783 41.3761 29.4529 40.8511 29.4529C40.3265 29.4529 39.9011 29.8783 39.9011 30.4029V32.3027H36.1014V30.4029C36.1014 29.8783 35.6766 29.4529 35.1515 29.4529C34.6269 29.4529 34.2016 29.8783 34.2016 30.4029V32.3027H33.2517C32.7271 32.3027 32.3018 32.728 32.3018 33.2526V52.2511C32.305 54.8731 34.4298 56.9979 37.0514 57.0007H51.3002C51.7844 57.0007 52.1912 56.6366 52.2446 56.1556L52.3614 55.1009H52.4718C53.9431 55.131 55.3044 54.3253 55.9863 53.0215L56.8035 51.3401C57.0971 50.739 57.0586 50.0289 56.7006 49.463ZM44.1619 48.3925L41.8821 53.5136L39.0825 45.7918L41.801 44.9787V45.6016C41.9067 46.944 42.859 48.0683 44.1656 48.3925H44.1619ZM34.2016 39.659L41.801 37.3793V42.9954L34.2016 45.2751V39.659ZM41.801 34.2026V35.396L34.2016 37.6757V34.2026H41.801ZM34.2016 52.2511V47.2584L37.2596 46.3419L40.4447 55.1009H37.0514C35.4776 55.1009 34.2016 53.8253 34.2016 52.2511ZM50.4454 55.1009H43.263L46.2185 48.4514H51.1893L50.4454 55.1009ZM54.2719 52.1903C53.9236 52.803 53.2743 53.1834 52.5697 53.188L52.8897 50.3512H54.8095C54.9992 50.3512 55.0943 50.4598 55.0943 50.5089L54.2719 52.1903Z" fill="#373737"/>
</svg>
