<svg width="70" height="64" viewBox="0 0 70 64" fill="none" xmlns="http://www.w3.org/2000/svg">
<path d="M69.1337 54.1332L40.5068 4.0223C39.3871 2.03601 37.2839 0.807251 35.0037 0.807251C32.7235 0.807251 30.6203 2.03601 29.5006 4.0223L0.873667 54.1332C-0.272978 56.1142 -0.281273 58.5551 0.851882 60.5438C1.98504 62.5325 4.08913 63.7698 6.37791 63.7933H63.6295C65.9183 63.7698 68.0224 62.5325 69.1555 60.5438C70.2887 58.5551 70.2804 56.1142 69.1337 54.1332ZM63.6295 61.4605H6.37791C4.92101 61.4362 3.58618 60.6414 2.87066 59.3721C2.15513 58.1028 2.16619 56.5493 2.8997 55.2903L31.5255 5.17937C32.2301 3.91994 33.5605 3.13981 35.0037 3.13981C36.4468 3.13981 37.7773 3.91994 38.4819 5.17937L67.1077 55.2903C67.842 56.5492 67.8534 58.1031 67.1377 59.3727C66.4221 60.6422 65.0867 61.437 63.6295 61.4605Z" fill="#373737"/>
<path d="M53.0829 35.7997H50.1669C48.8785 35.7997 47.8341 36.8441 47.8341 38.1325V43.9645H42.0021C40.7137 43.9645 39.6693 45.0089 39.6693 46.2973V52.1293H35.0037C33.7153 52.1293 32.6709 53.1737 32.6709 54.4621V59.1277C32.6709 59.7719 33.1931 60.2941 33.8373 60.2941C34.4815 60.2941 35.0037 59.7719 35.0037 59.1277V54.4621H39.6693C40.9577 54.4621 42.0021 53.4177 42.0021 52.1293V46.2973H47.8341C49.1225 46.2973 50.1669 45.2529 50.1669 43.9645V38.1325H53.0829C53.7271 38.1325 54.2493 37.6103 54.2493 36.9661C54.2493 36.3219 53.7271 35.7997 53.0829 35.7997Z" fill="#373737"/>
<path d="M30.4052 45.9264C33.2696 41.1895 36.3808 36.6062 39.7259 32.1956L40.8503 33.0191L38.2691 36.5521C37.454 37.5554 37.2585 38.9263 37.7605 40.1175C38.2625 41.3086 39.3803 42.126 40.6676 42.2433C41.9549 42.3605 43.202 41.7585 43.911 40.6777L47.8767 35.2644C49.3882 33.1824 48.936 30.2709 46.8643 28.7454L44.1816 26.7893C45.4965 25.4402 45.8698 23.4321 45.1274 21.7006C44.385 19.9692 42.673 18.8551 40.7893 18.8775C38.9055 18.8998 37.2205 20.0543 36.5195 21.803H35.0032V19.4702C35.0004 18.392 34.5007 17.3754 33.6489 16.7145C32.7971 16.0537 31.6882 15.8224 30.6432 16.0876C29.0638 16.5161 27.977 17.9623 28.0048 19.5985V24.1358C28.0076 26.504 29.7817 28.4956 32.1338 28.771L29.5211 32.3764L26.1654 31.1738C25.5614 30.959 24.8957 31.0012 24.3236 31.2905L17.2261 34.89C16.064 35.4255 15.2869 36.5527 15.1996 37.8292C15.1123 39.1058 15.7288 40.3282 16.8071 41.017C17.8855 41.7057 19.2539 41.7509 20.3754 41.1349L25.6941 38.444L26.6611 38.7939L23.8197 43.2146C22.9879 44.5119 22.8609 46.1395 23.4815 47.5501L25.8551 53.0532C26.5038 54.5868 28.1434 55.4509 29.7752 55.119C31.407 54.7872 32.5789 53.3513 32.5771 51.6861C32.5771 50.697 32.2738 50.2818 30.4052 45.9264ZM40.8352 21.2198C42.1236 21.2198 43.168 22.2642 43.168 23.5526C43.168 24.8409 42.1236 25.8854 40.8352 25.8854C39.5468 25.8854 38.5024 24.8409 38.5024 23.5526C38.5024 22.2642 39.5468 21.2198 40.8352 21.2198ZM28.0048 52.1352L25.6218 46.6111C25.3152 45.9132 25.3778 45.1082 25.7886 44.4661L29.4161 38.8254C29.6099 38.5267 29.6566 38.1559 29.543 37.8185C29.4294 37.481 29.1679 37.214 28.8329 37.0933L26.0219 36.0785C25.7159 35.9717 25.3798 35.9918 25.0888 36.1345L19.3221 39.0505C18.7526 39.3018 18.0862 39.0616 17.8079 38.5048C17.5297 37.948 17.7377 37.2708 18.2805 36.9662L25.378 33.3678L29.5596 34.8666C30.0477 35.0417 30.5929 34.8735 30.8975 34.4537L35.3414 28.3185C35.5982 27.9635 35.6343 27.4946 35.4351 27.1044C35.2358 26.7143 34.8347 26.4687 34.3967 26.4686H32.6704C31.382 26.4686 30.3376 25.4241 30.3376 24.1358V19.5985C30.3153 19.0311 30.6733 18.5181 31.2135 18.3434C31.5622 18.2538 31.9328 18.3302 32.2176 18.5504C32.5024 18.7707 32.6695 19.1101 32.6704 19.4702V22.9694C32.6704 23.6136 33.1926 24.1358 33.8368 24.1358H36.2291C36.3886 25.458 37.1103 26.6474 38.2095 27.3994C39.3087 28.1515 40.6787 28.3933 41.9689 28.063L45.4856 30.6291C46.5238 31.3931 46.7505 32.852 45.993 33.895L42.0272 39.3118C41.8475 39.561 41.5759 39.7283 41.2725 39.7767C40.9691 39.825 40.6589 39.7505 40.4106 39.5696C40.1582 39.3867 39.9895 39.1103 39.9422 38.8022C39.8948 38.4941 39.9728 38.1799 40.1587 37.9296L43.4246 33.4623C43.6082 33.2125 43.6849 32.8999 43.6376 32.5935C43.5903 32.2871 43.423 32.0122 43.1727 31.8293C39.9277 29.4499 39.9324 29.3204 39.2932 29.4114C38.654 29.5024 38.5782 29.8126 36.9499 32.058C32.8558 37.9074 36.4414 32.1746 28.1098 45.194C27.9022 45.5193 27.869 45.9263 28.0211 46.281L30.1416 51.2219C30.3296 51.7965 30.0474 52.4195 29.4915 52.6572C28.9355 52.8948 28.2902 52.6682 28.0048 52.1352Z" fill="#373737"/>
</svg>
