<svg width="17" height="16" viewBox="0 0 17 16" fill="none" xmlns="http://www.w3.org/2000/svg">
<path d="M0.271757 6.83723L7.53617 0.217931C7.85502 -0.0726542 8.33585 -0.0726226 8.65458 0.217899L15.919 6.83726C16.1744 7.07 16.2588 7.42861 16.134 7.75082C16.0092 8.07303 15.7053 8.2812 15.3598 8.2812H14.1995V14.9132C14.1995 15.1762 13.9863 15.3894 13.7234 15.3894H9.74156C9.47862 15.3894 9.26541 15.1762 9.26541 14.9132V10.8865H6.92524V14.9133C6.92524 15.1762 6.71203 15.3894 6.44909 15.3894H2.46748C2.20453 15.3894 1.99133 15.1763 1.99133 14.9133V8.2812H0.830855C0.485341 8.2812 0.18141 8.073 0.0565929 7.75082C-0.0680332 7.42858 0.0163364 7.07 0.271757 6.83723Z" fill="#373737"/>
<path d="M2.11529 0.950439H5.31299L1.63914 4.29098V1.42656C1.63914 1.16361 1.85231 0.950439 2.11529 0.950439Z" fill="#373737"/>
</svg>
