<svg width="62" height="70" viewBox="0 0 62 70" fill="none" xmlns="http://www.w3.org/2000/svg">
<g filter="url(#filter0_d)">
<path d="M30.9991 0C18.4142 0 8.17444 10.2397 8.17444 22.8259C8.17444 26.1089 8.84639 29.2434 10.1706 32.1431C15.8774 44.6309 26.8189 57.8154 30.0372 61.5584C30.2783 61.8382 30.6298 61.9994 30.9997 61.9994C31.3696 61.9994 31.7212 61.8382 31.9623 61.5584C35.1792 57.816 46.1208 44.6322 51.8294 32.1431C53.1543 29.2434 53.8256 26.1089 53.8256 22.8259C53.8244 10.2397 43.5846 0 30.9991 0ZM30.9991 34.6818C24.4617 34.6818 19.1426 29.3626 19.1426 22.8253C19.1426 16.2873 24.4617 10.9682 30.9991 10.9682C37.5364 10.9682 42.8556 16.2873 42.8556 22.8253C42.8562 29.3626 37.5371 34.6818 30.9991 34.6818Z" fill="#143B13"/>
</g>
<defs>
<filter id="filter0_d" x="-4" y="0" width="70" height="70" filterUnits="userSpaceOnUse" color-interpolation-filters="sRGB">
<feFlood flood-opacity="0" result="BackgroundImageFix"/>
<feColorMatrix in="SourceAlpha" type="matrix" values="0 0 0 0 0 0 0 0 0 0 0 0 0 0 0 0 0 0 127 0"/>
<feOffset dy="4"/>
<feGaussianBlur stdDeviation="2"/>
<feColorMatrix type="matrix" values="0 0 0 0 0 0 0 0 0 0 0 0 0 0 0 0 0 0 0.25 0"/>
<feBlend mode="normal" in2="BackgroundImageFix" result="effect1_dropShadow"/>
<feBlend mode="normal" in="SourceGraphic" in2="effect1_dropShadow" result="shape"/>
</filter>
</defs>
</svg>
